<svg xmlns="http://www.w3.org/2000/svg" width="716" height="864" viewBox="0 0 716 864" font-family="sans-serif" role="img" aria-label="Mesh topology"><title>Mesh topology</title><style>@media (prefers-color-scheme: dark){.f-bg{fill:#1b1c1f}.s-bg{stroke:#1b1c1f}.f-frame{fill:#45474d}.s-frame{stroke:#45474d}.f-card{fill:#26282c}.s-card{stroke:#26282c}.f-edge{fill:#6b6e75}.s-edge{stroke:#6b6e75}.f-text{fill:#e7e8ea}.s-text{stroke:#e7e8ea}.f-muted{fill:#a3a6ad}.s-muted{stroke:#a3a6ad}.f-ok{fill:#3fb950}.s-ok{stroke:#3fb950}.f-bad{fill:#f47067}.s-bad{stroke:#f47067}.f-sleep{fill:#9198a1}.s-sleep{stroke:#9198a1}.f-link{fill:#58a6ff}.s-link{stroke:#58a6ff}.f-relay{fill:#d29922}.s-relay{stroke:#d29922}.f-proxy{fill:#58a6ff}.s-proxy{stroke:#58a6ff}.f-friend{fill:#a371f7}.s-friend{stroke:#a371f7}.f-low_power{fill:#39c5cf}.s-low_power{stroke:#39c5cf}.f-badge_text{fill:#0d1117}.s-badge_text{stroke:#0d1117}}</style><rect x="0.5" y="0.5" width="715" height="863" rx="8" stroke-width="1" class="f-bg s-frame" fill="#f6f7f9" stroke="#c7c9cf"/><text x="16" y="34" font-size="16" font-weight="bold" class="f-text" fill="#1d1f23">Mesh topology</text><text x="16" y="52" font-size="11" class="f-muted" fill="#5d6068">6 devices · no link · 1 asleep</text><g><rect x="16" y="68" width="220" height="92" rx="6" stroke-width="3" class="f-card s-link" fill="#ffffff" stroke="#0969da"/><path d="M26 91V85L32 79L38 85V91Z" class="f-link" fill="#0969da"/><text x="46" y="89" font-size="12" font-weight="bold" class="f-text" fill="#1d1f23">Home Assistant</text><text x="46" y="106" font-size="11" class="f-muted" fill="#5d6068">address 0D00</text><text x="46" y="122" font-size="11" class="f-bad" fill="#c62828">no link</text></g><text x="16" y="194" font-size="12" font-weight="bold" class="f-muted" fill="#5d6068">1 hop</text><g><rect x="16" y="202" width="220" height="92" rx="6" stroke-width="1" class="f-card s-edge" fill="#ffffff" stroke="#9a9ca4"/><path d="M32 213L38 219L32 225L26 219Z" stroke-width="2" class="s-sleep" fill="none" stroke="#6e7781"/><text x="46" y="223" font-size="12" font-weight="bold" class="f-text" fill="#1d1f23">WC mirror - Push-butto…</text><text x="46" y="240" font-size="11" class="f-muted" fill="#5d6068">WC · 0110</text><text x="46" y="256" font-size="11" class="f-sleep" fill="#6e7781">not known (no link)</text><text x="46" y="272" font-size="11" class="f-muted" fill="#5d6068">relay · proxy</text><text x="46" y="288" font-size="11" class="f-muted" fill="#5d6068">last heard 2020-01-01 00:00</text><circle cx="223" cy="217" r="7" class="f-relay" fill="#9a6700"/><text x="223" y="220" font-size="9" font-weight="bold" text-anchor="middle" class="f-badge_text" fill="#ffffff">R</text><circle cx="223" cy="235" r="7" class="f-proxy" fill="#0969da"/><text x="223" y="238" font-size="9" font-weight="bold" text-anchor="middle" class="f-badge_text" fill="#ffffff">P</text></g><text x="16" y="328" font-size="12" font-weight="bold" class="f-muted" fill="#5d6068">2 hops</text><g><rect x="16" y="336" width="220" height="92" rx="6" stroke-width="1" class="f-card s-edge" fill="#ffffff" stroke="#9a9ca4"/><path d="M32 347L38 353L32 359L26 353Z" stroke-width="2" class="s-sleep" fill="none" stroke="#6e7781"/><text x="46" y="357" font-size="12" font-weight="bold" class="f-text" fill="#1d1f23">Boiler - Socket (meter…</text><text x="46" y="374" font-size="11" class="f-muted" fill="#5d6068">Kitchen · 0172</text><text x="46" y="390" font-size="11" class="f-sleep" fill="#6e7781">not known (no link)</text><text x="46" y="406" font-size="11" class="f-muted" fill="#5d6068">relay · proxy</text><text x="46" y="422" font-size="11" class="f-muted" fill="#5d6068">last heard 2020-01-01 00:00</text><circle cx="223" cy="351" r="7" class="f-relay" fill="#9a6700"/><text x="223" y="354" font-size="9" font-weight="bold" text-anchor="middle" class="f-badge_text" fill="#ffffff">R</text><circle cx="223" cy="369" r="7" class="f-proxy" fill="#0969da"/><text x="223" y="372" font-size="9" font-weight="bold" text-anchor="middle" class="f-badge_text" fill="#ffffff">P</text></g><g><rect x="248" y="336" width="220" height="92" rx="6" stroke-width="1" class="f-card s-edge" fill="#ffffff" stroke="#9a9ca4"/><path d="M264 347L270 353L264 359L258 353Z" stroke-width="2" class="s-sleep" fill="none" stroke="#6e7781"/><text x="278" y="357" font-size="12" font-weight="bold" class="f-text" fill="#1d1f23">Gateway 00DC</text><text x="278" y="374" font-size="11" class="f-muted" fill="#5d6068">00DC</text><text x="278" y="390" font-size="11" class="f-sleep" fill="#6e7781">not known (no link)</text><text x="278" y="406" font-size="11" class="f-muted" fill="#5d6068">relay · proxy · friend</text><text x="278" y="422" font-size="11" class="f-muted" fill="#5d6068">last heard 2020-01-01 00:00</text><circle cx="455" cy="351" r="7" class="f-relay" fill="#9a6700"/><text x="455" y="354" font-size="9" font-weight="bold" text-anchor="middle" class="f-badge_text" fill="#ffffff">R</text><circle cx="455" cy="369" r="7" class="f-proxy" fill="#0969da"/><text x="455" y="372" font-size="9" font-weight="bold" text-anchor="middle" class="f-badge_text" fill="#ffffff">P</text><circle cx="455" cy="387" r="7" class="f-friend" fill="#8250df"/><text x="455" y="390" font-size="9" font-weight="bold" text-anchor="middle" class="f-badge_text" fill="#ffffff">F</text></g><text x="16" y="462" font-size="12" font-weight="bold" class="f-muted" fill="#5d6068">3 hops</text><g><rect x="16" y="470" width="220" height="92" rx="6" stroke-width="1" class="f-card s-edge" fill="#ffffff" stroke="#9a9ca4"/><path d="M32 481L38 487L32 493L26 487Z" stroke-width="2" class="s-sleep" fill="none" stroke="#6e7781"/><text x="46" y="491" font-size="12" font-weight="bold" class="f-text" fill="#1d1f23">2-channel actuator 0400</text><text x="46" y="508" font-size="11" class="f-muted" fill="#5d6068">Living room · 0400</text><text x="46" y="524" font-size="11" class="f-sleep" fill="#6e7781">not known (no link)</text><text x="46" y="540" font-size="11" class="f-muted" fill="#5d6068">relay</text><text x="46" y="556" font-size="11" class="f-muted" fill="#5d6068">last heard 2020-01-01 00:00</text><circle cx="223" cy="485" r="7" class="f-relay" fill="#9a6700"/><text x="223" y="488" font-size="9" font-weight="bold" text-anchor="middle" class="f-badge_text" fill="#ffffff">R</text></g><line x1="16" y1="580" x2="700" y2="580" stroke-width="1" stroke-dasharray="4 4" class="s-edge" fill="none" stroke="#9a9ca4"/><text x="16" y="602" font-size="12" font-weight="bold" class="f-muted" fill="#5d6068">Hops not known</text><g><rect x="16" y="610" width="220" height="92" rx="6" stroke-width="1" class="f-card s-edge" fill="#ffffff" stroke="#9a9ca4"/><path d="M32 621L38 627L32 633L26 627Z" stroke-width="2" class="s-sleep" fill="none" stroke="#6e7781"/><text x="46" y="631" font-size="12" font-weight="bold" class="f-text" fill="#1d1f23">Attic light</text><text x="46" y="648" font-size="11" class="f-muted" fill="#5d6068">Attic · 0300</text><text x="46" y="664" font-size="11" class="f-sleep" fill="#6e7781">not known (no link)</text><text x="46" y="680" font-size="11" class="f-muted" fill="#5d6068">last heard 2020-01-01 00:00</text></g><g><rect x="248" y="610" width="220" height="92" rx="6" stroke-width="1" class="f-card s-edge" fill="#ffffff" stroke="#9a9ca4"/><rect x="259" y="622" width="10" height="10" stroke-width="2" class="s-sleep" fill="none" stroke="#6e7781"/><text x="278" y="631" font-size="12" font-weight="bold" class="f-text" fill="#1d1f23">Wall transmitter 1-gan…</text><text x="278" y="648" font-size="11" class="f-muted" fill="#5d6068">Hall · 0520</text><text x="278" y="664" font-size="11" class="f-sleep" fill="#6e7781">asleep (battery)</text><text x="278" y="680" font-size="11" class="f-muted" fill="#5d6068">low power</text><text x="278" y="696" font-size="11" class="f-muted" fill="#5d6068">last heard 2020-01-01 00:00</text><circle cx="455" cy="625" r="7" class="f-low_power" fill="#1b7c83"/><text x="455" y="628" font-size="9" font-weight="bold" text-anchor="middle" class="f-badge_text" fill="#ffffff">L</text></g><text x="16" y="732" font-size="12" font-weight="bold" class="f-muted" fill="#5d6068">Legend</text><circle cx="24" cy="746" r="6" class="f-ok" fill="#1a7f37"/><text x="38" y="750" font-size="11" class="f-text" fill="#1d1f23">reachable: answers</text><path d="M19 759L29 769M29 759L19 769" stroke-width="3" class="s-bad" fill="none" stroke="#c62828"/><text x="38" y="768" font-size="11" class="f-text" fill="#1d1f23">unreachable: did not answer</text><rect x="19" y="777" width="10" height="10" stroke-width="2" class="s-sleep" fill="none" stroke="#6e7781"/><text x="38" y="786" font-size="11" class="f-text" fill="#1d1f23">asleep: a battery device</text><path d="M24 794L30 800L24 806L18 800Z" stroke-width="2" class="s-sleep" fill="none" stroke="#6e7781"/><text x="38" y="804" font-size="11" class="f-text" fill="#1d1f23">not known: no link</text><rect x="17" y="812" width="14" height="12" rx="2" stroke-width="3" class="f-card s-link" fill="#ffffff" stroke="#0969da"/><text x="38" y="822" font-size="11" class="f-text" fill="#1d1f23">link proxy: Home Assistant&#x27;s way in</text><circle cx="366" cy="746" r="7" class="f-relay" fill="#9a6700"/><text x="366" y="749" font-size="9" font-weight="bold" text-anchor="middle" class="f-badge_text" fill="#ffffff">R</text><text x="380" y="750" font-size="11" class="f-text" fill="#1d1f23">R relay: passes messages on</text><circle cx="366" cy="764" r="7" class="f-proxy" fill="#0969da"/><text x="366" y="767" font-size="9" font-weight="bold" text-anchor="middle" class="f-badge_text" fill="#ffffff">P</text><text x="380" y="768" font-size="11" class="f-text" fill="#1d1f23">P proxy: offers a Bluetooth link</text><circle cx="366" cy="782" r="7" class="f-friend" fill="#8250df"/><text x="366" y="785" font-size="9" font-weight="bold" text-anchor="middle" class="f-badge_text" fill="#ffffff">F</text><text x="380" y="786" font-size="11" class="f-text" fill="#1d1f23">F friend: keeps messages for sleepers</text><circle cx="366" cy="800" r="7" class="f-low_power" fill="#1b7c83"/><text x="366" y="803" font-size="9" font-weight="bold" text-anchor="middle" class="f-badge_text" fill="#ffffff">L</text><text x="380" y="804" font-size="11" class="f-text" fill="#1d1f23">L low power: sleeps, has a friend</text><text x="16" y="840" font-size="11" class="f-muted" fill="#5d6068">Bands: the hops of each device&#x27;s last heartbeat (option Node heartbeats).</text></svg>
